<svg xmlns="http://www.w3.org/2000/svg" viewBox="0 0 653.9 97.7"><defs><style>.cls-1{fill:#231815;}</style></defs><title>資產 5</title><g id="圖層_2" data-name="圖層 2"><g id="圖層_2-2" data-name="圖層 2"><path class="cls-1" d="M53.08,70.85a30,30,0,0,1-22,9.09,30,30,0,0,1-22-9.09A30,30,0,0,1,0,48.85a30,30,0,0,1,9.09-22,30,30,0,0,1,22-9.09,30,30,0,0,1,22,9.09l.07.07-9.43,9.44-.07-.07a17.12,17.12,0,0,0-12.56-5.2,17.1,17.1,0,0,0-12.56,5.2,17.13,17.13,0,0,0-5.21,12.56,17.11,17.11,0,0,0,5.21,12.56,17.11,17.11,0,0,0,12.56,5.21,17.13,17.13,0,0,0,12.56-5.21l.07-.07,9.43,9.44Z"/><path class="cls-1" d="M81.18,48.85V79.94H67.86V0H81.18V23.25A29.85,29.85,0,0,1,99,17.76a30,30,0,0,1,22,9.09,30,30,0,0,1,9.09,22V79.94H116.71V48.85A17.76,17.76,0,0,0,86.39,36.29,17.13,17.13,0,0,0,81.18,48.85Z"/><path class="cls-1" d="M206.77,48.85a30,30,0,0,1-9.09,22,31.16,31.16,0,0,1-44,0,30,30,0,0,1-9.09-22,30,30,0,0,1,9.09-22,31.3,31.3,0,0,1,39.76-3.6V17.76h13.32ZM188.25,61.41a17.1,17.1,0,0,0,5.2-12.56,17.77,17.77,0,0,0-35.53,0,17.76,17.76,0,0,0,30.33,12.56Z"/><path class="cls-1" d="M270.19,48.85a17.77,17.77,0,0,0-35.53,0V79.94H221.34V48.85a30,30,0,0,1,9.09-22,31.17,31.17,0,0,1,44,0,35.62,35.62,0,0,1,2.42,2.71,33.75,33.75,0,0,1,2.43-2.71,31.17,31.17,0,0,1,44,0,30,30,0,0,1,9.09,22V79.94H319V48.85a17.76,17.76,0,1,0-35.52,0V79.94H270.19Z"/><path class="cls-1" d="M346.93,48.85a30,30,0,0,1,9.09-22,31.17,31.17,0,0,1,44,0,30,30,0,0,1,9.09,22,30,30,0,0,1-9.09,22,31.32,31.32,0,0,1-39.76,3.61V97.7H346.93Zm43.65,12.56a17.11,17.11,0,0,0,5.21-12.56,17.77,17.77,0,1,0-35.53,0,17.76,17.76,0,0,0,30.32,12.56Z"/><path class="cls-1" d="M437,31.09V48.85a17.77,17.77,0,0,0,17.76,17.77V79.94a29.94,29.94,0,0,1-22-9.09,29.93,29.93,0,0,1-9.1-22V0H437V17.76h17.76V31.09Z"/><path class="cls-1" d="M469.33,48.85a30,30,0,0,1,9.09-22,30,30,0,0,1,22-9.09V31.09a17.77,17.77,0,0,0-17.77,17.76V79.94H469.33Z"/><path class="cls-1" d="M546.07,79.94a30,30,0,0,1-22-9.09,30,30,0,0,1-9.09-22,30,30,0,0,1,9.09-22,31.17,31.17,0,0,1,44,0,30,30,0,0,1,9.09,22,30,30,0,0,1-9.09,22A30,30,0,0,1,546.07,79.94Zm12.56-18.53a17.1,17.1,0,0,0,5.2-12.56,17.76,17.76,0,1,0-35.52,0,17.76,17.76,0,0,0,30.32,12.56Z"/><path class="cls-1" d="M605.05,79.94H591.72V48.85a30,30,0,0,1,9.09-22,31.17,31.17,0,0,1,44,0,30,30,0,0,1,9.09,22V79.94H640.58V48.85a17.77,17.77,0,1,0-35.53,0Z"/></g></g></svg>