<svg xmlns="http://www.w3.org/2000/svg" viewBox="0 0 108.14 118.2"><defs><style>.cls-1{fill:none;stroke-width:3.8px;}.cls-1,.cls-2,.cls-3{stroke:#231815;stroke-linecap:round;stroke-linejoin:round;}.cls-2,.cls-3{fill:#fff;}.cls-2{stroke-width:2.38px;}.cls-3{stroke-width:1.9px;}</style></defs><title>資產 1</title><g id="圖層_2" data-name="圖層 2"><g id="圖層_2-2" data-name="圖層 2"><path class="cls-1" d="M15,54.48a2.71,2.71,0,0,0,0,.29A39.71,39.71,0,1,0,17.36,41.3"/><path class="cls-1" d="M64.94,78.54a25.86,25.86,0,1,0-10.17,2.08"/><path class="cls-1" d="M48.22,40.12a15.76,15.76,0,1,0,6.55-1.44h0"/><circle class="cls-2" cx="18.18" cy="40.93" r="4.36"/><circle class="cls-3" cx="47.72" cy="40.28" r="2.4"/><circle class="cls-3" cx="63.69" cy="79.29" r="3.14"/><path class="cls-1" d="M59.77,51.34a6.06,6.06,0,1,0,.35,6.28"/><path class="cls-1" d="M101.58,30.22a52.86,52.86,0,1,0-70.26,71.93"/><path class="cls-1" d="M38.59,105.1a52.87,52.87,0,0,0,63.27-26.34"/><polyline class="cls-1" points="38.2 105.25 29.79 116.29 31.39 102.85"/><circle class="cls-2" cx="102.59" cy="76.26" r="4.36"/><circle class="cls-2" cx="102.59" cy="31.31" r="4.36"/></g></g></svg>