<svg xmlns="http://www.w3.org/2000/svg" viewBox="0 0 398.46 51.95"><defs><style>.cls-1{fill:#fff;}.cls-2{fill:#fff;}</style></defs><title>資產 1</title><g id="圖層_2" data-name="圖層 2"><g id="圖層_2-2" data-name="圖層 2"><path class="cls-1" d="M7.44,24a.84.84,0,0,0-.83-.84h0a.83.83,0,0,0-.83.83v0s0,.07,0,.1a18.33,18.33,0,1,0,2.11-8.52,2.45,2.45,0,1,0,1.62.52,16.63,16.63,0,1,1-2,8V24ZM8,19.38a1.4,1.4,0,0,1,0-2.79,1.4,1.4,0,1,1,0,2.79Z"/><path class="cls-1" d="M21,16.23a1.47,1.47,0,0,0-1.47,1.43,7.76,7.76,0,1,0,4.57-1.5H24a.83.83,0,0,0-.79.83.84.84,0,0,0,.83.84h0a6.15,6.15,0,1,1-3.67,1.23,1.45,1.45,0,0,0,.55.1,1.47,1.47,0,1,0,0-2.94Zm0,2.11a.64.64,0,0,1-.64-.64.64.64,0,0,1,1.28,0A.64.64,0,0,1,21,18.34Z"/><path class="cls-1" d="M36.27,24.07a12.2,12.2,0,1,0-12.2,12.2.85.85,0,0,0,.84-.84.84.84,0,0,0-.84-.83A10.55,10.55,0,1,1,29,33.36a1.8,1.8,0,1,0,.78,1.49h0A12.16,12.16,0,0,0,36.27,24.07ZM28,35.81a1,1,0,1,1,1-1A1,1,0,0,1,28,35.81Z"/><path class="cls-1" d="M24.07,22.24a1.83,1.83,0,0,1,1.51.8A.84.84,0,0,0,27,22.09a3.5,3.5,0,1,0-2.89,5.48,3.48,3.48,0,0,0,3.09-1.86.84.84,0,0,0-.34-1.13.85.85,0,0,0-1.14.35,1.8,1.8,0,0,1-1.61,1,1.83,1.83,0,0,1,0-3.66Z"/><path class="cls-1" d="M44.82,31.72a2.44,2.44,0,0,0-1.73,4.16A22.39,22.39,0,0,1,17.22,45.4a.81.81,0,0,0-.65.05.83.83,0,0,0-.44.3l-1.85,2.42.34-2.87a.72.72,0,0,0,0-.33.87.87,0,0,0-.46-.83A22.39,22.39,0,1,1,43,12.13a2.44,2.44,0,0,0,1.81,4.07,2.44,2.44,0,0,0,0-4.88l-.33,0A24.07,24.07,0,1,0,12.93,45.4L12.26,51a.83.83,0,0,0,.52.87.67.67,0,0,0,.31.07.86.86,0,0,0,.67-.33l3.42-4.49A24,24,0,0,0,44.62,36.59h.2a2.44,2.44,0,1,0,0-4.88Zm1.39-18a1.4,1.4,0,1,1-1.39-1.39A1.4,1.4,0,0,1,46.21,13.76ZM44.82,35.55a1.4,1.4,0,1,1,1.39-1.39A1.4,1.4,0,0,1,44.82,35.55Z"/><path class="cls-1" d="M104.25,26.77V42.12H97.67V2.64h6.58V14.12a15.45,15.45,0,0,1,19.63,1.78,14.83,14.83,0,0,1,4.49,10.87V42.12h-6.58V26.77a8.77,8.77,0,1,0-17.54,0Z"/><path class="cls-1" d="M166.26,26.77a14.83,14.83,0,0,1-4.49,10.86,15.38,15.38,0,0,1-21.72,0,14.83,14.83,0,0,1-4.49-10.86,14.83,14.83,0,0,1,4.49-10.87,15.45,15.45,0,0,1,19.63-1.78V11.41h6.58ZM157.11,33a8.78,8.78,0,0,0,0-12.41,8.77,8.77,0,0,0-15,6.21,8.77,8.77,0,0,0,15,6.2Z"/><path class="cls-1" d="M197.57,26.77a8.77,8.77,0,1,0-17.54,0V42.12h-6.58V26.77a14.83,14.83,0,0,1,4.49-10.87,15.41,15.41,0,0,1,22.92,1.34c.37-.46.77-.9,1.2-1.34a15.39,15.39,0,0,1,21.73,0,14.83,14.83,0,0,1,4.48,10.87V42.12H221.7V26.77a8.78,8.78,0,1,0-17.55,0V42.12h-6.58Z"/><path class="cls-1" d="M235.47,26.77A14.8,14.8,0,0,1,240,15.9a15.38,15.38,0,0,1,21.72,0,14.83,14.83,0,0,1,4.49,10.87,14.83,14.83,0,0,1-4.49,10.86,15.45,15.45,0,0,1-19.63,1.78V50.89h-6.58ZM257,33a8.78,8.78,0,0,0,0-12.41,8.77,8.77,0,0,0-15,6.21A8.77,8.77,0,0,0,257,33Z"/><path class="cls-1" d="M279.94,18v8.78a8.77,8.77,0,0,0,8.77,8.77v6.58a14.8,14.8,0,0,1-10.86-4.49,14.79,14.79,0,0,1-4.49-10.86V2.64h6.58v8.77h8.77V18Z"/><path class="cls-1" d="M295.9,26.77a14.83,14.83,0,0,1,4.49-10.87,14.8,14.8,0,0,1,10.86-4.49V18a8.77,8.77,0,0,0-8.77,8.78V42.12H295.9Z"/><path class="cls-1" d="M333.79,42.12a14.83,14.83,0,0,1-10.86-4.49,14.83,14.83,0,0,1-4.49-10.86,14.83,14.83,0,0,1,4.49-10.87,15.39,15.39,0,0,1,21.73,0,14.83,14.83,0,0,1,4.48,10.87,14.82,14.82,0,0,1-4.48,10.86A14.83,14.83,0,0,1,333.79,42.12ZM340,33a8.78,8.78,0,0,0,0-12.41,8.78,8.78,0,0,0-15,6.21A8.78,8.78,0,0,0,340,33Z"/><path class="cls-1" d="M362.92,42.12h-6.58V26.77a14.8,14.8,0,0,1,4.49-10.87,15.38,15.38,0,0,1,21.72,0A14.83,14.83,0,0,1,387,26.77V42.12h-6.58V26.77a8.77,8.77,0,1,0-17.54,0Z"/><circle class="cls-1" cx="395.17" cy="38.83" r="3.29"/><path class="cls-2" d="M87.74,31.16a11.14,11.14,0,1,1,0-11.8V11a17.15,17.15,0,1,0,0,28.6Z"/></g></g></svg>