<svg xmlns="http://www.w3.org/2000/svg" viewBox="0 0 37.04 29.87"><defs><style>.cls-1{fill:#231815;}.cls-2{fill:#838383;}</style></defs><title>資產 5</title><g id="圖層_2" data-name="圖層 2"><g id="圖層_2-2" data-name="圖層 2"><path class="cls-1" d="M35.76,24.43l-12.28-8.5a3,3,0,1,0-3.4,4.91l12.27,8.5a3,3,0,0,0,3.41-4.91Z"/><path class="cls-2" d="M16.67,2.46a10.21,10.21,0,1,0,2.58,14.21A10.22,10.22,0,0,0,16.67,2.46Zm1,13.08A8.23,8.23,0,1,1,15.54,4.09,8.24,8.24,0,0,1,17.63,15.54Z"/><path class="cls-1" d="M16.67,2.46,17,1.92A10.88,10.88,0,0,0,1.93,4.68a10.86,10.86,0,0,0,8.92,17A10.86,10.86,0,0,0,17,1.93l-.37.53L16.3,3a9.58,9.58,0,1,1-5.43-1.69A9.56,9.56,0,0,1,16.3,3Zm1,13.08-.54-.37a7.58,7.58,0,0,1-6.24,3.26,7.57,7.57,0,1,1,0-15.14,7.58,7.58,0,0,1,6.22,11.88l.54.37.54.38a8.9,8.9,0,1,0-7.32,3.82,8.9,8.9,0,0,0,7.32-3.82Z"/></g></g></svg>