<svg xmlns="http://www.w3.org/2000/svg" viewBox="0 0 34.46 34.46"><defs><style>.cls-1{fill:#fff;}</style></defs><title>資產 4</title><g id="圖層_2" data-name="圖層 2"><g id="圖層_2-2" data-name="圖層 2"><circle cx="17.23" cy="17.23" r="17.23"/><path class="cls-1" d="M26.87,9.85,7.56,9.93a2.17,2.17,0,0,0-2,2.28L5.56,24a2.17,2.17,0,0,0,2.05,2.26l19.31-.07a2.17,2.17,0,0,0,2-2.28l0-11.74A2.17,2.17,0,0,0,26.87,9.85ZM7.07,23.94,7,12.21a.5.5,0,0,1,0-.18l7.64,6L7.09,24.1A.78.78,0,0,1,7.07,23.94ZM17.48,20.2,19,19l6.49,5.22-16,.06L16,19Zm0-2.07L9.35,11.77l16-.06Zm2.79-.2,7.16-5.83v0l0,11.59Z"/></g></g></svg>