<svg xmlns="http://www.w3.org/2000/svg" viewBox="0 0 34.46 34.46"><defs><style>.cls-1{fill:#fff;}</style></defs><title>資產 1</title><g id="圖層_2" data-name="圖層 2"><g id="圖層_2-2" data-name="圖層 2"><circle cx="17.23" cy="17.23" r="17.23"/><path class="cls-1" d="M15.05,24h0v1.69c0,1.11,0,2.22,0,3.33,0,.39.06.45.46.45h3.32l.29,0a.25.25,0,0,0,.18-.21,1.94,1.94,0,0,0,0-.24,1.43,1.43,0,0,1,0-.29,3.87,3.87,0,0,0,0-1,3.16,3.16,0,0,0,0-.69,3.62,3.62,0,0,0,0-.57,1.57,1.57,0,0,1,0-.53,5.9,5.9,0,0,0,.05-1.11,4.83,4.83,0,0,1,0-1.14.49.49,0,0,0,0-.12,2.91,2.91,0,0,1,0-1.06,3,3,0,0,0,0-.9,1.61,1.61,0,0,1,0-.49,6.31,6.31,0,0,0,0-1.44c0-.24,0-.49,0-.73a.93.93,0,0,1,0-.24.24.24,0,0,1,.2-.19c.22,0,.44-.05.66-.05l2.38,0c.37,0,.43-.13.47-.39.07-.5.15-1,.22-1.5,0-.18.06-.35.08-.53l.15-1.35v-.12a.19.19,0,0,0-.17-.19,2.3,2.3,0,0,0-.37,0H20a2.88,2.88,0,0,1-.41,0,.31.31,0,0,1-.3-.33c0-.39,0-.79,0-1.19a5.08,5.08,0,0,0,0-.78,3.12,3.12,0,0,1,0-.61l0-.29c0-.23.06-.46.1-.68a1,1,0,0,1,.23-.48,1.78,1.78,0,0,1,.95-.62,2.8,2.8,0,0,1,.77-.1h2.09a.2.2,0,0,0,.2-.18,5.43,5.43,0,0,0,.09-.69q0-.84,0-1.68c0-.3-.06-.6-.09-.9a.23.23,0,0,0-.16-.18.42.42,0,0,0-.15,0c-.43,0-.84-.11-1.27-.1a6.33,6.33,0,0,1-1.23,0h-.13l-.86,0a3.93,3.93,0,0,0-.48.06,5.82,5.82,0,0,0-.6.14,2.78,2.78,0,0,0-.93.32l-.11,0a3.23,3.23,0,0,0-1,.62,4.61,4.61,0,0,0-1,1.21,3.73,3.73,0,0,0-.52,1.33,5.54,5.54,0,0,1-.11.56,4.39,4.39,0,0,0-.13,1.14c0,.37,0,.74,0,1.11,0,.55,0,1.1,0,1.64A2.73,2.73,0,0,1,15,14a.35.35,0,0,1-.32.28h-.37c-.89,0-1.78,0-2.67-.05h0a.27.27,0,0,0-.25.23,2.09,2.09,0,0,0,0,.25v3.16a1.42,1.42,0,0,0,0,.29.24.24,0,0,0,.22.21l.36,0h2.47a1.83,1.83,0,0,1,.33,0,.29.29,0,0,1,.27.27,2.68,2.68,0,0,1,0,.4c0,1.42,0,2.83,0,4.24Z"/></g></g></svg>