<svg xmlns="http://www.w3.org/2000/svg" viewBox="0 0 34.46 34.46"><defs><style>.cls-1{fill:#fff;}</style></defs><title>資產 3</title><g id="圖層_2" data-name="圖層 2"><g id="圖層_2-2" data-name="圖層 2"><circle cx="17.23" cy="17.23" r="17.23"/><path class="cls-1" d="M17.87,9.76H16.72a4.26,4.26,0,0,0-.62,0A6.89,6.89,0,0,1,15,9.83H13.06l-.45,0c-.19,0-.38,0-.57,0a8.11,8.11,0,0,0-1.39.08h-.21a3.32,3.32,0,0,0-1.16.22,2,2,0,0,0-.93.58,2.85,2.85,0,0,0-.49.65,5.83,5.83,0,0,0-.51,1.81c0,.48-.09,1-.1,1.44,0,1.58,0,3.17,0,4.76a2.26,2.26,0,0,0,0,.45,4.14,4.14,0,0,1,.05.86A4.6,4.6,0,0,0,7.49,22c.07.26.13.53.22.79a2.48,2.48,0,0,0,.74,1.11,3,3,0,0,0,1.5.63,9.58,9.58,0,0,0,1.51.1c.4,0,.8,0,1.2,0a1.45,1.45,0,0,1,.36,0,5,5,0,0,0,1,.05l2.34,0,.24,0,.53,0H18.6l.41,0,.7-.05c.34,0,.68,0,1,0a11.81,11.81,0,0,0,1.68-.07,1.31,1.31,0,0,1,.28,0l1.48,0a2.29,2.29,0,0,0,.37,0,5.12,5.12,0,0,1,.78-.06,3,3,0,0,0,1.41-.4,2.54,2.54,0,0,0,1.14-1.45c.06-.21.13-.42.2-.63a1.77,1.77,0,0,0,.12-.64c0-.14,0-.27,0-.41s0-.44.05-.65a2.64,2.64,0,0,1,0-.29,6.11,6.11,0,0,0,.07-.86,11.3,11.3,0,0,1,.06-1.64.24.24,0,0,0,0-.12,2.55,2.55,0,0,1,0-.78,1.33,1.33,0,0,0,0-.2c0-.45,0-.9-.07-1.35s-.09-1.06-.1-1.6a5.38,5.38,0,0,0-.07-.69l0-.2c-.1-.32-.18-.64-.29-1a2.3,2.3,0,0,0-.51-.83A2.92,2.92,0,0,0,25.62,10a10.74,10.74,0,0,0-1.6-.1,4.58,4.58,0,0,1-.53,0l-.53,0H20.29l-.46,0c-.23,0-.46-.05-.69-.05Z"/><path d="M15.45,17.22V14.79a2.69,2.69,0,0,1,0-.4.21.21,0,0,1,.28-.17l.07,0,1.43.72.4.21c.24.12.48.26.73.38l1.43.72c.29.14.56.33.87.45a1.82,1.82,0,0,1,.41.27.18.18,0,0,1,0,.29l-.31.19c-.29.15-.59.29-.87.46-.55.31-1.1.61-1.66.9-.39.2-.76.42-1.15.63s-.88.5-1.33.74a.2.2,0,0,1-.3-.16,2.83,2.83,0,0,1,0-.41Z"/></g></g></svg>