<svg xmlns="http://www.w3.org/2000/svg" viewBox="0 0 34.46 34.46"><defs><style>.cls-1{fill:#fff;}</style></defs><title>資產 2</title><g id="圖層_2" data-name="圖層 2"><g id="圖層_2-2" data-name="圖層 2"><circle cx="17.23" cy="17.23" r="17.23"/><path class="cls-1" d="M17.2,5.56h-2c-1.2,0-2.4,0-3.6.08a8.05,8.05,0,0,0-1.3.24L9.89,6a4.83,4.83,0,0,0-1.1.46,8.62,8.62,0,0,0-1.32,1,7,7,0,0,0-.94,1.27.6.6,0,0,0-.08.16c-.08.17-.15.34-.23.52s-.09.19-.12.28a7.2,7.2,0,0,0-.38,1.9s0,.08,0,.13c0,.23,0,.46,0,.7,0,.94,0,1.88,0,2.82a7.08,7.08,0,0,1,0,.92,1.09,1.09,0,0,0,0,.31,2.82,2.82,0,0,1,0,.87,1.35,1.35,0,0,0,0,.4,2.11,2.11,0,0,1,0,.83,2,2,0,0,0,0,.35v2.42a3.15,3.15,0,0,0,0,.44c0,.22,0,.44,0,.66a5.87,5.87,0,0,0,.16,1.26,6.68,6.68,0,0,0,.53,1.58A5.38,5.38,0,0,0,7.46,26.9c.22.21.42.42.65.6a3.8,3.8,0,0,0,1.22.7l.11.06a5.39,5.39,0,0,0,1.61.46,6.38,6.38,0,0,0,1.31.11.82.82,0,0,1,.22,0c.47.06.94,0,1.4,0a1.1,1.1,0,0,0,.18,0h.22l1.49,0h.18c.52,0,1.05,0,1.58-.06a5.16,5.16,0,0,0,1.18,0c.14,0,.29,0,.43,0a1.82,1.82,0,0,1,.57,0,3.15,3.15,0,0,0,1.06,0,5.61,5.61,0,0,1,.92-.06,8.47,8.47,0,0,0,2.34-.32A6,6,0,0,0,26,27.62a7,7,0,0,0,1.25-1.11.76.76,0,0,0,.11-.14c.19-.33.43-.63.6-1a6.39,6.39,0,0,0,.57-1.66c0-.28.07-.55.11-.83a11.9,11.9,0,0,0,.15-1.79v-.4a7.21,7.21,0,0,0,0-1.14,5.79,5.79,0,0,1,0-.83c0-.16,0-.32,0-.48s0-.21,0-.31c.07-.47,0-.94,0-1.4,0-.18,0-.36,0-.53,0-.43,0-.85,0-1.28s0-.58,0-.87a18,18,0,0,0-.11-2.2c0-.3-.07-.61-.12-.91a6,6,0,0,0-.17-.73,5.89,5.89,0,0,0-.26-.7,4.85,4.85,0,0,0-1-1.6l-.69-.68a2.37,2.37,0,0,0-.59-.45,5.26,5.26,0,0,0-1.15-.54c-.24-.06-.47-.17-.71-.23a6.44,6.44,0,0,0-1-.17c-.46,0-.93-.12-1.4-.12Z"/><path d="M8.23,17c0-.89,0-1.62,0-2.34s0-1.16,0-1.73c0-.18,0-.35.07-.53s.07-.49.1-.73a3.62,3.62,0,0,1,.48-1.43,3.5,3.5,0,0,1,1.57-1.52,6.69,6.69,0,0,1,1.17-.39,4.15,4.15,0,0,1,1.06-.1c.21,0,.43,0,.65-.05l.41,0h6.49a1.51,1.51,0,0,1,.37,0,4.14,4.14,0,0,0,.86.05,8.26,8.26,0,0,1,1.31.1,2.37,2.37,0,0,1,.36.09l.54.18a2.81,2.81,0,0,1,1,.63c.14.13.29.25.42.39a7,7,0,0,1,.6.93,1.07,1.07,0,0,1,.07.19c.06.21.13.42.18.63a4.18,4.18,0,0,1,.17,1.22,3.9,3.9,0,0,0,.06.9,2.77,2.77,0,0,1,0,.41v6.9c0,.22,0,.44-.05.66s0,.16,0,.24a4.15,4.15,0,0,1-.1,1.06,6.53,6.53,0,0,1-.3,1,4.54,4.54,0,0,1-.32.62,2.39,2.39,0,0,1-.28.35,3.88,3.88,0,0,1-.73.67,1.47,1.47,0,0,1-.39.21l-.46.19a2.49,2.49,0,0,1-.55.16,8.07,8.07,0,0,1-1.38.14,3.91,3.91,0,0,0-.9.07,1.38,1.38,0,0,1-.29,0H15.33a4.91,4.91,0,0,1-.86,0,4.22,4.22,0,0,0-.62,0,4.57,4.57,0,0,1-1-.06,1.37,1.37,0,0,0-.29,0,4.81,4.81,0,0,1-1.46-.2A3.23,3.23,0,0,1,9.63,25,5.64,5.64,0,0,1,9,24.18a3.14,3.14,0,0,1-.4-.94,4.77,4.77,0,0,1-.19-1.13c0-.39-.09-.78-.13-1.18a3.39,3.39,0,0,1,0-.45ZM23,17.2a3.53,3.53,0,0,0-.15-1.34l0-.12A5.3,5.3,0,0,0,22.1,14a6.55,6.55,0,0,0-1.39-1.49l-.39-.26a4.83,4.83,0,0,0-1.23-.6,7.24,7.24,0,0,0-.92-.22,4.61,4.61,0,0,0-2.33.11,7,7,0,0,0-1.16.42,6.09,6.09,0,0,0-1.48,1,5.77,5.77,0,0,0-.93,1.17,4.25,4.25,0,0,0-.62,1.41,4.8,4.8,0,0,0-.23,1.3.59.59,0,0,1,0,.13,1.28,1.28,0,0,0,0,.55,1.32,1.32,0,0,1,0,.34,3,3,0,0,0,.12.68,5.59,5.59,0,0,0,.62,1.54,5.87,5.87,0,0,0,1.32,1.57,5.18,5.18,0,0,0,1,.64c.25.13.51.19.75.32a2.91,2.91,0,0,0,1.2.3c.25,0,.51,0,.77.06a.74.74,0,0,0,.21,0,10.8,10.8,0,0,0,1.27-.19A5.74,5.74,0,0,0,22,20.51a4.9,4.9,0,0,0,.85-1.82A4.06,4.06,0,0,0,23,17.2Zm0-7.07h-.28a.8.8,0,0,0-.42.16,1.26,1.26,0,0,0-.51,1.3,1.14,1.14,0,0,0,.25.59,1.29,1.29,0,0,0,1.5.3,1.33,1.33,0,0,0,.62-.64.24.24,0,0,0,0-.12,2,2,0,0,0,0-.69,1.38,1.38,0,0,0-.8-.87.45.45,0,0,0-.16,0A2.08,2.08,0,0,0,23.05,10.13Z"/><path d="M20.9,17.22a3.94,3.94,0,0,1-.11,1,3.43,3.43,0,0,1-.43.88,3.76,3.76,0,0,1-1.59,1.39l-.34.13-.59.16a2.06,2.06,0,0,1-1.18,0l-.47-.13A2.78,2.78,0,0,1,15,20.09l-.19-.16A3,3,0,0,1,14,18.86a2.64,2.64,0,0,1-.31-.71,5,5,0,0,1-.14-.93,3.6,3.6,0,0,1,.24-1.37,1.47,1.47,0,0,0,.1-.22,2.06,2.06,0,0,1,.49-.8,4.24,4.24,0,0,1,1.21-1,3.81,3.81,0,0,1,1.62-.38,3.94,3.94,0,0,1,1.37.23,4.22,4.22,0,0,1,.73.38,3.07,3.07,0,0,1,1.21,1.36,1.51,1.51,0,0,0,.09.18A2.64,2.64,0,0,1,20.9,17Z"/></g></g></svg>