<svg xmlns="http://www.w3.org/2000/svg" viewBox="0 0 321.47 34.51"><defs><style>.cls-1{fill:#fff;}</style></defs><title>資產 4</title><g id="圖層_2" data-name="圖層 2"><g id="圖層_2-2" data-name="圖層 2"><circle cx="17.23" cy="17.27" r="17.23"/><path class="cls-1" d="M15.05,24h0V25.7c0,1.11,0,2.22,0,3.33,0,.39.06.45.46.45h3.32l.29,0a.25.25,0,0,0,.18-.2,2,2,0,0,0,0-.25,1.33,1.33,0,0,1,0-.28,3.87,3.87,0,0,0,0-1,3.25,3.25,0,0,0,0-.7,3.62,3.62,0,0,0,0-.57,1.57,1.57,0,0,1,0-.53,5.79,5.79,0,0,0,.05-1.1,4.91,4.91,0,0,1,0-1.15.53.53,0,0,0,0-.12,2.91,2.91,0,0,1,0-1.06,3,3,0,0,0,0-.9,1.61,1.61,0,0,1,0-.49,6.23,6.23,0,0,0,0-1.43c0-.25,0-.5,0-.74a1,1,0,0,1,0-.24.24.24,0,0,1,.2-.19,4.87,4.87,0,0,1,.66,0h2.38c.37,0,.43-.12.47-.39.07-.5.15-1,.22-1.5,0-.18.06-.35.08-.53l.15-1.34v-.13a.19.19,0,0,0-.17-.19l-.37,0H20a2.88,2.88,0,0,1-.41,0,.3.3,0,0,1-.3-.33c0-.39,0-.79,0-1.18a5,5,0,0,0,0-.78,3.21,3.21,0,0,1,0-.62l0-.28c0-.23.06-.46.1-.69a1,1,0,0,1,.23-.48,1.91,1.91,0,0,1,.95-.62,3.25,3.25,0,0,1,.77-.1h2.09a.2.2,0,0,0,.2-.17,5.36,5.36,0,0,0,.09-.7q0-.84,0-1.68c0-.3-.06-.6-.09-.9a.26.26,0,0,0-.16-.18l-.15,0c-.43,0-.84-.11-1.27-.1a7.22,7.22,0,0,1-1.23,0h-.13l-.86,0a3.93,3.93,0,0,0-.48.06l-.6.14a3,3,0,0,0-.93.32.22.22,0,0,1-.11,0,3.07,3.07,0,0,0-1,.63,4.73,4.73,0,0,0-1,1.2,3.73,3.73,0,0,0-.52,1.33,5,5,0,0,1-.11.56,4.44,4.44,0,0,0-.13,1.14c0,.37,0,.74,0,1.11,0,.55,0,1.1,0,1.65a2.69,2.69,0,0,1,0,.4.33.33,0,0,1-.32.28h-.37c-.89,0-1.78,0-2.67,0h0a.27.27,0,0,0-.25.23,2.18,2.18,0,0,0,0,.25V18a1.37,1.37,0,0,0,0,.29.23.23,0,0,0,.22.21,2.17,2.17,0,0,0,.36,0h2.47a1.83,1.83,0,0,1,.33,0,.3.3,0,0,1,.27.27,2.75,2.75,0,0,1,0,.41c0,1.41,0,2.82,0,4.23Z"/><circle cx="112.9" cy="17.23" r="17.23"/><path class="cls-1" d="M112.87,5.56h-2c-1.2,0-2.4,0-3.6.08a8.05,8.05,0,0,0-1.3.24l-.42.12a4.83,4.83,0,0,0-1.1.46,8.62,8.62,0,0,0-1.32,1,7,7,0,0,0-.94,1.27.6.6,0,0,0-.08.16c-.08.17-.15.34-.23.52s-.09.19-.12.28a7.2,7.2,0,0,0-.38,1.9s0,.08,0,.13c0,.23-.05.46-.05.7,0,.94,0,1.88,0,2.82a7.08,7.08,0,0,1,0,.92,1.09,1.09,0,0,0,0,.31,2.82,2.82,0,0,1,0,.87,1.35,1.35,0,0,0,0,.4,2.11,2.11,0,0,1,0,.83,2,2,0,0,0,0,.35v2.42a3.15,3.15,0,0,0,0,.44c0,.22,0,.44,0,.66a5.87,5.87,0,0,0,.16,1.26,6.68,6.68,0,0,0,.53,1.58,5.24,5.24,0,0,0,1.14,1.61,7.22,7.22,0,0,0,.64.6,3.8,3.8,0,0,0,1.22.7l.11.06a5.39,5.39,0,0,0,1.61.46,6.38,6.38,0,0,0,1.31.11.82.82,0,0,1,.22,0c.47.06.94,0,1.4,0a1.1,1.1,0,0,0,.18,0h.22l1.49,0h.18c.52,0,1,0,1.58-.06a5.16,5.16,0,0,0,1.18,0c.14,0,.29,0,.43,0a1.82,1.82,0,0,1,.57,0,3.15,3.15,0,0,0,1.06,0,5.61,5.61,0,0,1,.92-.06,8.47,8.47,0,0,0,2.34-.32,6,6,0,0,0,1.91-.88A7,7,0,0,0,123,26.51a.76.76,0,0,0,.11-.14c.19-.33.43-.63.6-1a6.39,6.39,0,0,0,.57-1.66c0-.28.07-.55.11-.83a11.9,11.9,0,0,0,.15-1.79v-.4a7.21,7.21,0,0,0,0-1.14,5.79,5.79,0,0,1,0-.83c0-.16,0-.32,0-.48s0-.21,0-.31c.07-.47,0-.94,0-1.4,0-.18,0-.36,0-.53,0-.43,0-.85,0-1.28s0-.58,0-.87a18,18,0,0,0-.11-2.2c0-.3-.07-.61-.12-.91a6,6,0,0,0-.17-.73,5.89,5.89,0,0,0-.26-.7,4.85,4.85,0,0,0-1-1.6l-.69-.68a2.37,2.37,0,0,0-.59-.45,5.26,5.26,0,0,0-1.15-.54c-.24-.06-.47-.17-.71-.23a6.44,6.44,0,0,0-1-.17c-.46,0-.93-.12-1.4-.12Z"/><path d="M103.9,17c0-.89,0-1.62,0-2.34s0-1.16,0-1.73c0-.18,0-.35.07-.53s.07-.49.1-.73a3.62,3.62,0,0,1,.48-1.43,3.5,3.5,0,0,1,1.57-1.52,6.69,6.69,0,0,1,1.17-.39,4.15,4.15,0,0,1,1.06-.1c.21,0,.43,0,.65-.05l.41,0h6.49a1.51,1.51,0,0,1,.37,0,4.14,4.14,0,0,0,.86.05,8.26,8.26,0,0,1,1.31.1,2.37,2.37,0,0,1,.36.09l.54.18a2.81,2.81,0,0,1,1,.63c.14.13.29.25.42.39a7,7,0,0,1,.6.93,1.07,1.07,0,0,1,.07.19c.06.21.13.42.18.63a4.18,4.18,0,0,1,.17,1.22,3.9,3.9,0,0,0,.06.9,2.77,2.77,0,0,1,0,.41v6.9c0,.22,0,.44-.05.66s0,.16,0,.24a4.15,4.15,0,0,1-.1,1.06,6.53,6.53,0,0,1-.3,1,4.54,4.54,0,0,1-.32.62,2.39,2.39,0,0,1-.28.35,3.88,3.88,0,0,1-.73.67,1.47,1.47,0,0,1-.39.21l-.46.19a2.49,2.49,0,0,1-.55.16,8,8,0,0,1-1.38.14,3.91,3.91,0,0,0-.9.07,1.38,1.38,0,0,1-.29,0H111a4.91,4.91,0,0,1-.86,0,4.22,4.22,0,0,0-.62,0,4.57,4.57,0,0,1-1-.06,1.37,1.37,0,0,0-.29,0,4.81,4.81,0,0,1-1.46-.2A3.23,3.23,0,0,1,105.3,25a5.64,5.64,0,0,1-.66-.79,3.14,3.14,0,0,1-.4-.94,4.77,4.77,0,0,1-.19-1.13c0-.39-.09-.78-.13-1.18a3.39,3.39,0,0,1,0-.45Zm14.79.21a3.53,3.53,0,0,0-.15-1.34l0-.12a5.3,5.3,0,0,0-.74-1.73,6.55,6.55,0,0,0-1.39-1.49l-.39-.26a4.83,4.83,0,0,0-1.23-.6,7.24,7.24,0,0,0-.92-.22,4.61,4.61,0,0,0-2.33.11,7,7,0,0,0-1.16.42,5.59,5.59,0,0,0-2.41,2.19,4.25,4.25,0,0,0-.62,1.41,4.8,4.8,0,0,0-.23,1.3.59.59,0,0,1,0,.13,1.28,1.28,0,0,0,0,.55,1.32,1.32,0,0,1,0,.34,3,3,0,0,0,.12.68,5.59,5.59,0,0,0,.62,1.54,5.73,5.73,0,0,0,1.33,1.57,4.79,4.79,0,0,0,1,.64c.25.13.51.19.75.32a2.91,2.91,0,0,0,1.2.3c.25,0,.51,0,.77.06a.74.74,0,0,0,.21,0,10.8,10.8,0,0,0,1.27-.19,5.74,5.74,0,0,0,3.3-2.31,4.9,4.9,0,0,0,.85-1.82A4.06,4.06,0,0,0,118.69,17.2Zm0-7.07h-.29a.8.8,0,0,0-.42.16,1.26,1.26,0,0,0-.51,1.3,1.14,1.14,0,0,0,.25.59,1.31,1.31,0,0,0,1.51.3,1.36,1.36,0,0,0,.61-.64.24.24,0,0,0,0-.12,2,2,0,0,0,0-.69,1.38,1.38,0,0,0-.8-.87.41.41,0,0,0-.16,0A1.92,1.92,0,0,0,118.73,10.13Z"/><path d="M116.57,17.22a3.94,3.94,0,0,1-.11,1,3.43,3.43,0,0,1-.43.88,3.76,3.76,0,0,1-1.59,1.39l-.34.13-.59.16a2.06,2.06,0,0,1-1.18,0l-.47-.13a2.78,2.78,0,0,1-1.16-.59l-.19-.16a3,3,0,0,1-.88-1.07,2.64,2.64,0,0,1-.31-.71,5,5,0,0,1-.14-.93,3.6,3.6,0,0,1,.24-1.37,1.47,1.47,0,0,0,.1-.22,2.19,2.19,0,0,1,.49-.8,4.24,4.24,0,0,1,1.21-1,3.81,3.81,0,0,1,1.62-.38,3.94,3.94,0,0,1,1.37.23,4.22,4.22,0,0,1,.73.38,3.07,3.07,0,0,1,1.21,1.36,1.51,1.51,0,0,0,.09.18,2.64,2.64,0,0,1,.33,1.34Z"/><circle cx="208.57" cy="17.23" r="17.23"/><path class="cls-1" d="M209.21,9.76h-1.15a4.26,4.26,0,0,0-.62,0,6.89,6.89,0,0,1-1.11.06H204.4l-.45,0c-.19,0-.38,0-.57,0A8.11,8.11,0,0,0,202,10h-.21a3.32,3.32,0,0,0-1.16.22,2.12,2.12,0,0,0-.93.58,2.85,2.85,0,0,0-.49.65,5.83,5.83,0,0,0-.51,1.81c-.05.48-.09,1-.1,1.44,0,1.58,0,3.17,0,4.76a2.26,2.26,0,0,0,0,.45,4.14,4.14,0,0,1,0,.86,4.6,4.6,0,0,0,.17,1.22c.07.26.13.53.22.79a2.48,2.48,0,0,0,.74,1.11,3,3,0,0,0,1.5.63,9.63,9.63,0,0,0,1.52.1c.39,0,.79,0,1.19,0a1.53,1.53,0,0,1,.37,0,4.9,4.9,0,0,0,.94.05l2.34,0,.24,0,.53,0h1.52l.41,0,.7-.05c.34,0,.68,0,1,0a11.81,11.81,0,0,0,1.68-.07,1.31,1.31,0,0,1,.28,0l1.48,0a2.26,2.26,0,0,0,.37,0,5.12,5.12,0,0,1,.78-.06,3,3,0,0,0,1.41-.4,2.54,2.54,0,0,0,1.14-1.45q.09-.32.21-.63a2,2,0,0,0,.11-.64c0-.14,0-.27,0-.41s0-.44.05-.65,0-.2,0-.29a4.91,4.91,0,0,0,.07-.86,11.3,11.3,0,0,1,.06-1.64.24.24,0,0,0,0-.12,2.55,2.55,0,0,1,0-.78.67.67,0,0,0,0-.2c0-.45,0-.9-.07-1.35s-.09-1.06-.1-1.6a5.38,5.38,0,0,0-.07-.69l0-.2c-.1-.32-.18-.64-.29-1a2.3,2.3,0,0,0-.51-.83A2.92,2.92,0,0,0,217,10a10.66,10.66,0,0,0-1.6-.1,4.58,4.58,0,0,1-.53,0l-.53,0h-2.67l-.46,0c-.23,0-.46-.05-.69-.05Z"/><path d="M206.79,17.22V14.79a2.69,2.69,0,0,1,0-.4.21.21,0,0,1,.28-.17l.07,0,1.43.72.4.21c.25.12.48.26.73.38l1.43.72c.29.14.56.33.87.45a1.82,1.82,0,0,1,.41.27.18.18,0,0,1,0,.29l-.31.19c-.29.15-.59.29-.87.46-.55.31-1.1.61-1.66.9-.39.2-.76.42-1.15.63s-.88.5-1.33.74a.2.2,0,0,1-.3-.16,2.83,2.83,0,0,1,0-.41Z"/><circle cx="304.24" cy="17.23" r="17.23"/><path class="cls-1" d="M313.88,9.85l-19.31.08a2.17,2.17,0,0,0-2,2.28l0,11.74a2.17,2.17,0,0,0,2.05,2.26l19.31-.07a2.17,2.17,0,0,0,2-2.28l0-11.74A2.17,2.17,0,0,0,313.88,9.85Zm-19.8,14.09,0-11.73a.5.5,0,0,1,0-.18l7.64,6L294.1,24.1A.78.78,0,0,1,294.08,23.94Zm10.41-3.74L306,19l6.49,5.22-16,.06L303,19Zm0-2.07-8.11-6.36,16-.06Zm2.8-.2,7.15-5.83v0l0,11.59Z"/></g></g></svg>